<svg id="Capa_1" enable-background="new 0 0 511.998 511.998" height="512" viewBox="0 0 511.998 511.998" width="512" xmlns="http://www.w3.org/2000/svg"><path d="m114.588 485.583h-88.748v-113.791c0-2.842 2.304-5.145 5.145-5.145h78.457c2.842 0 5.145 2.304 5.145 5.145v113.791z" fill="#8ac9fe"/><path d="m114.586 371.796v105.063h-25.139v-105.063c0-2.851-2.305-5.145-5.145-5.145h25.139c2.84 0 5.145 2.295 5.145 5.145z" fill="#60b7ff"/><path d="m362.302 485.583h-88.748v-265.571c0-2.842 2.304-5.145 5.145-5.145h78.457c2.842 0 5.145 2.304 5.145 5.145v265.571z" fill="#fb2b3a"/><path d="m362.3 220.016v256.843h-25.139v-256.843c0-2.851-2.305-5.145-5.145-5.145h25.139c2.84 0 5.145 2.295 5.145 5.145z" fill="#e41f2d"/><path d="m486.159 485.583h-88.748v-360.584c0-2.842 2.304-5.145 5.145-5.145h78.457c2.842 0 5.145 2.304 5.145 5.145v360.584z" fill="#fec165"/><path d="m486.157 125.003v351.856h-25.139v-351.856c0-2.851-2.305-5.145-5.145-5.145h25.139c2.84-.001 5.145 2.294 5.145 5.145z" fill="#fdb441"/><path d="m238.445 485.583h-88.748v-208.693c0-2.842 2.304-5.145 5.145-5.145h78.457c2.842 0 5.145 2.304 5.145 5.145v208.693z" fill="#00c27a"/><path d="m238.443 276.894v199.965h-25.139v-199.965c0-2.851-2.305-5.145-5.145-5.145h25.139c2.84-.001 5.145 2.294 5.145 5.145z" fill="#08b865"/><path d="m379.592.515-56.318 9.939c-9.416 1.662-16.079 10.774-14.807 20.251 1.379 10.273 10.858 17.204 21.065 15.403l9.713-1.714-44.339 69.914c-3.509 5.532-10.838 7.173-16.37 3.664l-76.612-39.994c-9.555-6.06-22.214-3.228-28.276 6.325l-69.361 103.939c-5.849 9.216-3.117 21.429 6.101 27.275 9.216 5.845 21.425 3.112 27.27-6.104l52.777-77.871c3.509-5.532 10.838-7.173 16.37-3.664l76.655 40.021c9.557 6.061 22.219 3.227 28.28-6.33l60.946-96.1 2.184 12.375c1.737 9.843 11.125 16.415 20.968 14.677 9.844-1.737 16.416-11.126 14.677-20.97l-9.955-56.361c-1.738-9.842-11.125-16.412-20.968-14.675z" fill="#8ac9fe"/><path d="m410.516 71.548-9.952-56.356c-1.739-9.84-11.133-16.415-20.973-14.677l-.903.156c1.727 6.865 3.867 13.64 4.659 20.719.804 7.167 5.267 20.042-2.797 24.698-4.937 2.85-10.619-.275-15.74 2.944-4.504 2.831-6.93 7.017-9.725 11.417-6.887 10.843-13.752 21.675-20.617 32.507-9.896 15.602-19.208 31.59-29.688 46.817-7.381 10.724-13.51 11.839-28.284 3.666l-76.661-40.019c-5.528-3.51-12.86-1.872-16.371 3.655l-52.771 80.539c-5.851 9.216-18.053 11.947-27.27 6.107-.446-.29-.88-.58-1.293-.903-2.663 8.358.501 17.775 8.258 22.701 3.288 2.084 6.943 3.076 10.565 3.076 6.542 0 12.938-3.254 16.705-9.183l52.771-77.875c3.511-5.528 10.843-7.166 16.371-3.655l76.661 40.019c9.551 6.063 22.211 3.221 28.273-6.33l60.947-96.107 2.184 12.381c1.739 9.84 11.122 16.415 20.973 14.677 8.782-1.549 14.955-9.194 14.955-17.808.002-1.048-.087-2.107-.277-3.166z" fill="#60b7ff"/><path d="m506.853 511.762h-501.708c-2.842 0-5.145-2.304-5.145-5.145v-24.611c0-2.842 2.304-5.145 5.145-5.145h501.707c2.842 0 5.145 2.304 5.145 5.145v24.611c.001 2.841-2.302 5.145-5.144 5.145z" fill="#5a5a5a"/></svg>